<?xml version="1.0" encoding="UTF-8" standalone="no"?>
<!-- Created with Inkscape (http://www.inkscape.org/) -->

<svg
   width="50mm"
   height="30.76923mm"
   viewBox="0 0 50 30.76923"
   version="1.1"
   id="svg1"
   xml:space="preserve"
   xmlns="http://www.w3.org/2000/svg"
   xmlns:svg="http://www.w3.org/2000/svg"><defs
     id="defs1" /><g
     id="layer1"><g
       style="fill:none"
       id="g1"
       transform="matrix(0.26458333,0,0,0.26458333,77.493065,131.56667)"><g
         fill="#000000"
         id="g2"><path
           clip-rule="evenodd"
           d="m -279.25908,-488.17446 c -2.50884,0 -4.5427,2.03386 -4.5427,4.5427 v 89.03695 c 0,2.50848 2.03386,4.54271 4.5427,4.54271 h 161.72018 c 2.50847,0 4.5427,-2.03423 4.5427,-4.54271 v -89.03695 c 0,-2.50884 -2.03423,-4.5427 -4.5427,-4.5427 z m -13.6281,4.5427 c 0,-7.52659 6.10151,-13.6281 13.6281,-13.6281 h 161.72018 c 7.52634,0 13.6281,6.10151 13.6281,13.6281 v 89.03695 c 0,7.52635 -6.10176,13.6281 -13.6281,13.6281 h -161.72018 c -7.52659,0 -13.6281,-6.10175 -13.6281,-13.6281 z"
           fill-rule="evenodd"
           id="path1"
           style="fill:#171717;fill-opacity:1;stroke-width:0.90854" /><path
           d="m -161.40307,-408.22291 -27.25608,-29.98184 h 18.17072 v -31.79891 h 18.1707 v 31.79891 h 18.17071 z"
           id="path2"
           style="fill:#171717;fill-opacity:1;stroke-width:0.908538" /><path
           class="st0"
           d="m -209.54071,-464.18173 v 0 c -6.32786,-9.06586 -18.86187,-11.74302 -27.86686,-5.96277 l -15.8805,10.10022 c -4.31996,2.73801 -7.30135,7.17967 -8.21402,12.16893 -0.73013,4.19829 -0.12168,8.51826 1.88618,12.29063 -1.33857,2.06873 -2.31209,4.38082 -2.73799,6.81462 -0.91267,5.17178 0.30422,10.46529 3.28561,14.72441 6.32784,9.06585 18.801,11.74304 27.86686,5.96278 l 15.88049,-10.10023 c 4.31995,-2.738 7.30134,-7.17966 8.21402,-12.16892 0.73013,-4.19829 0.12168,-8.51827 -1.8862,-12.29064 1.3386,-2.06872 2.31211,-4.38082 2.73803,-6.81462 0.91266,-5.17179 -0.30423,-10.46527 -3.28562,-14.72441 z m -4.56336,13.02077 c -0.12168,0.48675 -0.24337,0.97351 -0.36506,1.46028 l -0.30422,0.91267 -0.79099,-0.60846 c -1.88618,-1.39941 -3.9549,-2.43378 -6.20617,-3.10308 l -0.60843,-0.18253 0.0608,-0.60844 c 0.0609,-0.85183 -0.18253,-1.64281 -0.66929,-2.37294 -0.91267,-1.33858 -2.55548,-1.8862 -4.0766,-1.52113 -0.36506,0.12169 -0.6693,0.24337 -0.97352,0.42591 l -15.88046,10.16107 c -0.79099,0.48675 -1.33858,1.27773 -1.46027,2.19041 -0.18254,0.91267 0.0608,1.88619 0.60844,2.67717 0.91267,1.33859 2.55547,1.88619 4.0766,1.52112 0.36507,-0.12169 0.66929,-0.24338 0.97351,-0.42591 l 6.08447,-3.83324 c 0.97352,-0.60844 2.06872,-1.09519 3.22478,-1.39942 5.11095,-1.33857 10.52612,0.6693 13.50751,4.98927 1.82534,2.55548 2.55549,5.7194 2.00788,8.8225 -0.54759,3.04221 -2.3121,5.71939 -4.92842,7.3622 l -15.94131,10.10021 c -0.97352,0.60845 -2.06873,1.09522 -3.22476,1.39944 v 0 c -5.11096,1.33857 -10.52614,-0.66931 -13.50754,-4.98928 -1.82533,-2.55548 -2.55547,-5.7194 -2.00787,-8.82248 0.12169,-0.48676 0.24338,-0.9735 0.36507,-1.46026 l 0.30422,-0.91266 0.79098,0.60844 c 1.8862,1.39941 3.95491,2.43378 6.20616,3.10307 l 0.60845,0.18254 -0.0608,0.60844 c -0.0609,0.85181 0.18252,1.70366 0.66928,2.37294 0.91266,1.33859 2.55547,1.88619 4.07659,1.52112 0.36508,-0.12169 0.6693,-0.24338 0.97351,-0.42592 l 15.88048,-10.10022 c 0.79099,-0.48674 1.33858,-1.27773 1.52111,-2.1904 0.18254,-0.91267 -0.0609,-1.88619 -0.60844,-2.67717 -0.91267,-1.33859 -2.55548,-1.88618 -4.07661,-1.52111 -0.36504,0.12168 -0.66927,0.24338 -0.9735,0.4259 l -6.08446,3.83323 c -0.97352,0.60845 -2.06873,1.0952 -3.22478,1.39942 -5.11094,1.27773 -10.52613,-0.73013 -13.56836,-5.11095 -1.82535,-2.55548 -2.55548,-5.71941 -2.00789,-8.82249 0.54761,-3.04223 2.3121,-5.71939 4.92843,-7.36221 l 15.9413,-10.10022 c 0.97352,-0.60844 2.06873,-1.09521 3.22478,-1.39942 5.11095,-1.33858 10.52613,0.66929 13.50752,4.98927 1.82534,2.61632 2.55549,5.78024 2.00787,8.88332 z"
           id="path1-5"
           style="fill:#e47312;fill-opacity:1;stroke-width:0.608447" /><path
           clip-rule="evenodd"
           d="m -279.25908,-356.50544 c -2.50884,0 -4.5427,2.03386 -4.5427,4.5427 v 89.03695 c 0,2.50848 2.03386,4.54271 4.5427,4.54271 h 161.72018 c 2.50847,0 4.5427,-2.03423 4.5427,-4.54271 v -89.03695 c 0,-2.50884 -2.03423,-4.5427 -4.5427,-4.5427 z m -13.6281,4.5427 c 0,-7.52659 6.10151,-13.6281 13.6281,-13.6281 h 161.72018 c 7.52634,0 13.6281,6.10151 13.6281,13.6281 v 89.03695 c 0,7.52635 -6.10176,13.6281 -13.6281,13.6281 h -161.72018 c -7.52659,0 -13.6281,-6.10175 -13.6281,-13.6281 z"
           fill-rule="evenodd"
           id="path1-6"
           style="fill:#f5f5f5;fill-opacity:1;stroke-width:0.90854" /><path
           d="m -161.40307,-276.55389 -27.25608,-29.98184 h 18.17072 v -31.79891 h 18.1707 v 31.79891 h 18.17071 z"
           id="path2-2"
           style="fill:#f5f5f5;fill-opacity:1;stroke-width:0.908538" /><path
           class="st0"
           d="m -209.54071,-332.51271 v 0 c -6.32786,-9.06586 -18.86187,-11.74302 -27.86686,-5.96277 l -15.8805,10.10022 c -4.31996,2.73801 -7.30135,7.17967 -8.21402,12.16893 -0.73013,4.19829 -0.12168,8.51826 1.88618,12.29063 -1.33857,2.06873 -2.31209,4.38082 -2.73799,6.81462 -0.91267,5.17178 0.30422,10.46529 3.28561,14.72441 6.32784,9.06585 18.801,11.74304 27.86686,5.96278 l 15.88049,-10.10023 c 4.31995,-2.738 7.30134,-7.17966 8.21402,-12.16892 0.73013,-4.19829 0.12168,-8.51827 -1.8862,-12.29064 1.3386,-2.06872 2.31211,-4.38082 2.73803,-6.81462 0.91266,-5.17179 -0.30423,-10.46527 -3.28562,-14.72441 z m -4.56336,13.02077 c -0.12168,0.48675 -0.24337,0.97351 -0.36506,1.46028 l -0.30422,0.91267 -0.79099,-0.60846 c -1.88618,-1.39941 -3.9549,-2.43378 -6.20617,-3.10308 l -0.60843,-0.18253 0.0608,-0.60844 c 0.0609,-0.85183 -0.18253,-1.64281 -0.66929,-2.37294 -0.91267,-1.33858 -2.55548,-1.8862 -4.0766,-1.52113 -0.36506,0.12169 -0.6693,0.24337 -0.97352,0.42591 l -15.88046,10.16107 c -0.79099,0.48675 -1.33858,1.27773 -1.46027,2.19041 -0.18254,0.91267 0.0608,1.88619 0.60844,2.67717 0.91267,1.33859 2.55547,1.88619 4.0766,1.52112 0.36507,-0.12169 0.66929,-0.24338 0.97351,-0.42591 l 6.08447,-3.83324 c 0.97352,-0.60844 2.06872,-1.09519 3.22478,-1.39942 5.11095,-1.33857 10.52612,0.6693 13.50751,4.98927 1.82534,2.55548 2.55549,5.7194 2.00788,8.8225 -0.54759,3.04221 -2.3121,5.71939 -4.92842,7.3622 l -15.94131,10.10021 c -0.97352,0.60845 -2.06873,1.09522 -3.22476,1.39944 v 0 c -5.11096,1.33857 -10.52614,-0.66931 -13.50754,-4.98928 -1.82533,-2.55548 -2.55547,-5.7194 -2.00787,-8.82248 0.12169,-0.48676 0.24338,-0.9735 0.36507,-1.46026 l 0.30422,-0.91266 0.79098,0.60844 c 1.8862,1.39941 3.95491,2.43378 6.20616,3.10307 l 0.60845,0.18254 -0.0608,0.60844 c -0.0609,0.85181 0.18252,1.70366 0.66928,2.37294 0.91266,1.33859 2.55547,1.88619 4.07659,1.52112 0.36508,-0.12169 0.6693,-0.24338 0.97351,-0.42592 l 15.88048,-10.10022 c 0.79099,-0.48674 1.33858,-1.27773 1.52111,-2.1904 0.18254,-0.91267 -0.0609,-1.88619 -0.60844,-2.67717 -0.91267,-1.33859 -2.55548,-1.88618 -4.07661,-1.52111 -0.36504,0.12168 -0.66927,0.24338 -0.9735,0.4259 l -6.08446,3.83323 c -0.97352,0.60845 -2.06873,1.0952 -3.22478,1.39942 -5.11094,1.27773 -10.52613,-0.73013 -13.56836,-5.11095 -1.82535,-2.55548 -2.55548,-5.71941 -2.00789,-8.82249 0.54761,-3.04223 2.3121,-5.71939 4.92843,-7.36221 l 15.9413,-10.10022 c 0.97352,-0.60844 2.06873,-1.09521 3.22478,-1.39942 5.11095,-1.33858 10.52613,0.66929 13.50752,4.98927 1.82534,2.61632 2.55549,5.78024 2.00787,8.88332 z"
           id="path1-5-6"
           style="fill:#f38d1c;fill-opacity:1;stroke-width:0.608447" /></g></g></g><style
     type="text/css"
     id="style1">
	.st0{fill:#FF3E00;}
</style></svg>
